# xmcd
#
# Track frame offsets: 
#        150
#        22740
#        42845
#        57774
#        77538
#        93133
#        111539
#        132694
#        148247
#        163894
#
# Disc length: 2400 seconds
#
# Revision: 7
# Processed by: cddbd v1.5.2PL0 Copyright (c) Steve Scherf et al.
# Submitted via: ExactAudioCopy v0.99pb4
#
DISCID=84095e0a
DTITLE=Руслана - Амазонка
DYEAR=2008
DGENRE=Pop-Folk
TTITLE0=Дика Енергія
TTITLE1=Відлуння Мрій
TTITLE2=Ми Будемо Перші
TTITLE3=Я Йду За Тобою
TTITLE4=Ти Жива (Синтетична)
TTITLE5=Вогонь Чи Лід (Все Не Те...)
TTITLE6=Де Ти, Моя Любов
TTITLE7=Дикий Ангел
TTITLE8=Не Для Продажу
TTITLE9=Як Змінити Майбутне
EXTD=Year: 2008
EXTT0=
EXTT1=
EXTT2=
EXTT3=
EXTT4=
EXTT5=
EXTT6=
EXTT7=
EXTT8=
EXTT9=
PLAYORDER=
